<svg width="213" height="213" viewBox="0 0 213 213" fill="none" xmlns="http://www.w3.org/2000/svg">
<g filter="url(#filter0_d_113_4)">
<circle cx="106.5" cy="102.5" r="92.5" fill="#F4AFFF"/>
<circle cx="106.5" cy="102.5" r="97.5" stroke="#B6AFFF" stroke-width="10"/>
</g>
<path d="M63.5312 120.09V128H28.5156V121.25L45.0742 103.496C46.7383 101.645 48.0508 100.016 49.0117 98.6094C49.9727 97.1797 50.6641 95.9023 51.0859 94.7773C51.5312 93.6289 51.7539 92.5391 51.7539 91.5078C51.7539 89.9609 51.4961 88.6367 50.9805 87.5352C50.4648 86.4102 49.7031 85.543 48.6953 84.9336C47.7109 84.3242 46.4922 84.0195 45.0391 84.0195C43.4922 84.0195 42.1562 84.3945 41.0312 85.1445C39.9297 85.8945 39.0859 86.9375 38.5 88.2734C37.9375 89.6094 37.6562 91.1211 37.6562 92.8086H27.4961C27.4961 89.7617 28.2227 86.9727 29.6758 84.4414C31.1289 81.8867 33.1797 79.8594 35.8281 78.3594C38.4766 76.8359 41.6172 76.0742 45.25 76.0742C48.8359 76.0742 51.8594 76.6602 54.3203 77.832C56.8047 78.9805 58.6797 80.6445 59.9453 82.8242C61.2344 84.9805 61.8789 87.5586 61.8789 90.5586C61.8789 92.2461 61.6094 93.8984 61.0703 95.5156C60.5312 97.1094 59.7578 98.7031 58.75 100.297C57.7656 101.867 56.5703 103.461 55.1641 105.078C53.7578 106.695 52.1992 108.371 50.4883 110.105L41.5938 120.09H63.5312ZM104.312 97.9062V106.766C104.312 110.609 103.902 113.926 103.082 116.715C102.262 119.48 101.078 121.754 99.5312 123.535C98.0078 125.293 96.1914 126.594 94.082 127.438C91.9727 128.281 89.6289 128.703 87.0508 128.703C84.9883 128.703 83.0664 128.445 81.2852 127.93C79.5039 127.391 77.8984 126.559 76.4688 125.434C75.0625 124.309 73.8438 122.891 72.8125 121.18C71.8047 119.445 71.0312 117.383 70.4922 114.992C69.9531 112.602 69.6836 109.859 69.6836 106.766V97.9062C69.6836 94.0625 70.0938 90.7695 70.9141 88.0273C71.7578 85.2617 72.9414 83 74.4648 81.2422C76.0117 79.4844 77.8398 78.1953 79.9492 77.375C82.0586 76.5312 84.4023 76.1094 86.9805 76.1094C89.043 76.1094 90.9531 76.3789 92.7109 76.918C94.4922 77.4336 96.0977 78.2422 97.5273 79.3438C98.957 80.4453 100.176 81.8633 101.184 83.5977C102.191 85.3086 102.965 87.3594 103.504 89.75C104.043 92.1172 104.312 94.8359 104.312 97.9062ZM94.1523 108.102V96.5352C94.1523 94.6836 94.0469 93.0664 93.8359 91.6836C93.6484 90.3008 93.3555 89.1289 92.957 88.168C92.5586 87.1836 92.0664 86.3867 91.4805 85.7773C90.8945 85.168 90.2266 84.7227 89.4766 84.4414C88.7266 84.1602 87.8945 84.0195 86.9805 84.0195C85.832 84.0195 84.8125 84.2422 83.9219 84.6875C83.0547 85.1328 82.3164 85.8477 81.707 86.832C81.0977 87.793 80.6289 89.082 80.3008 90.6992C79.9961 92.293 79.8438 94.2383 79.8438 96.5352V108.102C79.8438 109.953 79.9375 111.582 80.125 112.988C80.3359 114.395 80.6406 115.602 81.0391 116.609C81.4609 117.594 81.9531 118.402 82.5156 119.035C83.1016 119.645 83.7695 120.09 84.5195 120.371C85.293 120.652 86.1367 120.793 87.0508 120.793C88.1758 120.793 89.1719 120.57 90.0391 120.125C90.9297 119.656 91.6797 118.93 92.2891 117.945C92.9219 116.938 93.3906 115.625 93.6953 114.008C94 112.391 94.1523 110.422 94.1523 108.102ZM147.062 108.875V116.82H110.184L109.691 110.668L131.031 76.8125H139.082L130.363 91.4023L119.746 108.875H147.062ZM141.262 76.8125V128H131.137V76.8125H141.262ZM187.035 113.973C187.035 117.184 186.285 119.891 184.785 122.094C183.285 124.273 181.223 125.926 178.598 127.051C175.996 128.152 173.043 128.703 169.738 128.703C166.434 128.703 163.469 128.152 160.844 127.051C158.219 125.926 156.145 124.273 154.621 122.094C153.098 119.891 152.336 117.184 152.336 113.973C152.336 111.816 152.77 109.871 153.637 108.137C154.504 106.379 155.711 104.879 157.258 103.637C158.828 102.371 160.668 101.41 162.777 100.754C164.887 100.074 167.184 99.7344 169.668 99.7344C172.996 99.7344 175.973 100.32 178.598 101.492C181.223 102.664 183.285 104.316 184.785 106.449C186.285 108.582 187.035 111.09 187.035 113.973ZM176.84 113.305C176.84 111.734 176.535 110.387 175.926 109.262C175.34 108.113 174.508 107.234 173.43 106.625C172.352 106.016 171.098 105.711 169.668 105.711C168.238 105.711 166.984 106.016 165.906 106.625C164.828 107.234 163.984 108.113 163.375 109.262C162.789 110.387 162.496 111.734 162.496 113.305C162.496 114.852 162.789 116.188 163.375 117.312C163.984 118.438 164.828 119.305 165.906 119.914C167.008 120.5 168.285 120.793 169.738 120.793C171.191 120.793 172.445 120.5 173.5 119.914C174.578 119.305 175.398 118.438 175.961 117.312C176.547 116.188 176.84 114.852 176.84 113.305ZM185.945 90.3828C185.945 92.9844 185.254 95.293 183.871 97.3086C182.488 99.3008 180.566 100.859 178.105 101.984C175.668 103.109 172.879 103.672 169.738 103.672C166.574 103.672 163.762 103.109 161.301 101.984C158.84 100.859 156.918 99.3008 155.535 97.3086C154.152 95.293 153.461 92.9844 153.461 90.3828C153.461 87.2891 154.152 84.6875 155.535 82.5781C156.941 80.4453 158.863 78.8281 161.301 77.7266C163.762 76.625 166.551 76.0742 169.668 76.0742C172.832 76.0742 175.633 76.625 178.07 77.7266C180.531 78.8281 182.453 80.4453 183.836 82.5781C185.242 84.6875 185.945 87.2891 185.945 90.3828ZM175.82 90.8398C175.82 89.457 175.574 88.2617 175.082 87.2539C174.59 86.2227 173.887 85.4258 172.973 84.8633C172.082 84.3008 170.98 84.0195 169.668 84.0195C168.402 84.0195 167.312 84.2891 166.398 84.8281C165.508 85.3672 164.816 86.1523 164.324 87.1836C163.855 88.1914 163.621 89.4102 163.621 90.8398C163.621 92.2227 163.855 93.4414 164.324 94.4961C164.816 95.5273 165.52 96.3359 166.434 96.9219C167.348 97.5078 168.449 97.8008 169.738 97.8008C171.027 97.8008 172.117 97.5078 173.008 96.9219C173.922 96.3359 174.613 95.5273 175.082 94.4961C175.574 93.4414 175.82 92.2227 175.82 90.8398Z" fill="white"/>
<defs>
<filter id="filter0_d_113_4" x="0" y="0" width="213" height="213" filterUnits="userSpaceOnUse" color-interpolation-filters="sRGB">
<feFlood flood-opacity="0" result="BackgroundImageFix"/>
<feColorMatrix in="SourceAlpha" type="matrix" values="0 0 0 0 0 0 0 0 0 0 0 0 0 0 0 0 0 0 127 0" result="hardAlpha"/>
<feOffset dy="4"/>
<feGaussianBlur stdDeviation="2"/>
<feComposite in2="hardAlpha" operator="out"/>
<feColorMatrix type="matrix" values="0 0 0 0 0 0 0 0 0 0 0 0 0 0 0 0 0 0 0.25 0"/>
<feBlend mode="normal" in2="BackgroundImageFix" result="effect1_dropShadow_113_4"/>
<feBlend mode="normal" in="SourceGraphic" in2="effect1_dropShadow_113_4" result="shape"/>
</filter>
</defs>
</svg>
