<?xml version="1.0" encoding="iso-8859-1"?>
<!-- Generator: Adobe Illustrator 19.0.0, SVG Export Plug-In . SVG Version: 6.00 Build 0)  -->
<svg version="1.1" id="Layer_1" xmlns="http://www.w3.org/2000/svg" xmlns:xlink="http://www.w3.org/1999/xlink" x="0px" y="0px"
	 viewBox="0 0 511.973 511.973" style="enable-background:new 0 0 511.973 511.973;" xml:space="preserve">
<path style="fill:#ED5564;" d="M431.524,131.742c-0.375-35.029-13.39-67.934-36.701-92.729C371.168,13.859,339.701,0,306.234,0
	H237.44c-33.467,0-64.934,13.858-88.589,39.013c-23.311,24.796-36.334,57.7-36.709,92.729c-0.023,0.25-0.031,0.516-0.031,0.766
	v38.107c-13.929,10.312-24.038,25.812-28.733,44.295c-5.664,22.265-3.148,46.528,7.078,68.324l20.038,42.67
	c9.226,19.64,34.24,43.529,43.74,52.169v110.963c0.008,12.655,9.929,22.937,22.132,22.937h190.396
	c12.203,0,22.124-10.281,22.124-22.937V376.901c9.233-12.39,42.67-59.935,42.67-98.042V132.507
	C431.555,132.257,431.555,131.992,431.524,131.742z"/>
<path style="fill:#DA4453;" d="M198.286,210.582c16.343,24.546,21.827,51.231,21.913,51.669c1.008,5.078,5.461,8.594,10.453,8.594
	c0.68,0,1.375-0.062,2.07-0.203c5.781-1.125,9.546-6.734,8.406-12.515c-0.242-1.234-6.171-30.687-24.709-58.794
	c-25.155-38.139-61.208-55.435-104.307-50.122v21.404c0.469,0,0.945-0.031,1.422-0.094
	C148.89,165.772,177.412,179.24,198.286,210.582z"/>
<path style="fill:#E6E9ED;" d="M292.89,383.979c-2.719,0-5.453-1.047-7.531-3.125l-42.669-42.67c-4.164-4.171-4.164-10.921,0-15.077
	c4.164-4.172,10.914-4.172,15.085,0l42.662,42.654c4.172,4.156,4.172,10.921,0,15.093
	C298.359,382.932,295.625,383.979,292.89,383.979z"/>
<path style="fill:#F5F7FA;" d="M250.229,383.979c-2.727,0-5.46-1.047-7.539-3.125c-4.164-4.172-4.164-10.937,0-15.093l42.669-42.654
	c4.156-4.172,10.922-4.172,15.078,0c4.172,4.156,4.172,10.906,0,15.077l-42.662,42.67
	C255.69,382.932,252.963,383.979,250.229,383.979z"/>
<path style="fill:#E6E9ED;" d="M292.89,458.632c-2.719,0-5.453-1.031-7.531-3.125l-42.669-42.654
	c-4.164-4.171-4.164-10.937,0-15.093c4.164-4.156,10.914-4.156,15.085,0l42.662,42.67c4.172,4.172,4.172,10.921,0,15.077
	C298.359,457.6,295.625,458.632,292.89,458.632z"/>
<path style="fill:#F5F7FA;" d="M250.229,458.632c-2.727,0-5.46-1.031-7.539-3.125c-4.164-4.156-4.164-10.905,0-15.077l42.669-42.67
	c4.156-4.156,10.922-4.156,15.078,0c4.172,4.156,4.172,10.922,0,15.093l-42.662,42.654
	C255.69,457.6,252.963,458.632,250.229,458.632z"/>
<g>
	<path style="fill:#DA4453;" d="M186.232,394.634c5.89,0,10.671-4.781,10.671-10.655c0-5.906-4.781-10.671-10.671-10.671h-37.131
		c1.984,1.875,3.734,3.483,5.132,4.765v16.562h31.999V394.634z"/>
	<path style="fill:#DA4453;" d="M356.903,373.308c-5.906,0-10.671,4.765-10.671,10.671c0,5.874,4.765,10.655,10.671,10.655h31.982
		v-17.733c0.734-0.984,1.625-2.202,2.641-3.593H356.903z"/>
</g>
<path style="opacity:0.2;fill:#FFFFFF;enable-background:new    ;" d="M406.509,53.325c-3.547-5.016-7.453-9.797-11.687-14.312
	C371.167,13.859,339.7,0,306.233,0h-68.794c-33.467,0-64.934,13.858-88.589,39.013c-4.242,4.516-8.14,9.297-11.687,14.312
	c0.164-0.031,63.637-10.672,134.4-10.672C342.31,42.653,406.306,53.294,406.509,53.325z"/>
<g>
</g>
<g>
</g>
<g>
</g>
<g>
</g>
<g>
</g>
<g>
</g>
<g>
</g>
<g>
</g>
<g>
</g>
<g>
</g>
<g>
</g>
<g>
</g>
<g>
</g>
<g>
</g>
<g>
</g>
</svg>
