<?xml version="1.0" encoding="iso-8859-1"?>
<!-- Generator: Adobe Illustrator 19.0.0, SVG Export Plug-In . SVG Version: 6.00 Build 0)  -->
<svg version="1.1" id="Layer_1" xmlns="http://www.w3.org/2000/svg" xmlns:xlink="http://www.w3.org/1999/xlink" x="0px" y="0px"
	 viewBox="0 0 511.999 511.999" style="enable-background:new 0 0 511.999 511.999;" xml:space="preserve">
<g>
	<g>
		<g>
			<path d="M272.49,369.383c-4.809,3.542-10.509,5.414-16.487,5.414c-6.161,0-11.155,4.995-11.155,11.155
				s4.994,11.155,11.155,11.155c10.772,0,21.049-3.374,29.718-9.76c4.96-3.653,6.019-10.636,2.366-15.596
				C284.433,366.789,277.451,365.731,272.49,369.383z"/>
			<path d="M295.044,335.755c-6.161,0-11.155,4.995-11.155,11.155l-0.001,0.276c-0.074,6.16,4.86,11.214,11.02,11.287
				c0.046,0.001,0.091,0.001,0.137,0.001c6.097,0,11.078-4.906,11.151-11.021l0.002-0.543
				C306.198,340.75,301.204,335.755,295.044,335.755z"/>
			<path d="M474.433,238.831c-0.94-4.881-4.996-8.551-9.947-8.998l-149.921-13.582v-13.236h124.095c5.3,0,9.867-3.729,10.928-8.921
				c1.012-4.95,24.125-122.023-32.173-190.05c-3.929-4.746-10.962-5.409-15.706-1.481c-4.746,3.928-5.41,10.959-1.482,15.706
				c41.213,49.8,32.991,134.843,28.977,162.438H314.564c0-3.365-0.455-6.625-1.293-9.729l72.839-17.634
				c4.831-1.169,8.305-5.394,8.52-10.359c0.145-3.373,3.071-83.135-40.13-127.352c-4.306-4.408-11.368-4.486-15.774-0.183
				c-4.407,4.305-4.489,11.367-0.184,15.774c29.089,29.774,33.29,82.25,33.789,102.504l-72.23,17.488
				c-3.63-2.825-7.79-4.996-12.308-6.335V130.51c0-6.16-4.994-11.155-11.155-11.155c-6.161,0-11.155,4.995-11.155,11.155v12.828
				h-18.963V130.51c0-6.16-4.994-11.155-11.155-11.155s-11.155,4.995-11.155,11.155v14.367c-4.519,1.339-8.679,3.51-12.31,6.336
				l-72.246-17.49c0.472-20.239,4.619-72.633,33.801-102.502c4.305-4.406,4.223-11.468-0.184-15.774
				c-4.406-4.308-11.469-4.223-15.774,0.183c-43.201,44.217-40.275,123.979-40.13,127.352c0.214,4.965,3.689,9.19,8.52,10.359
				l72.845,17.637c-0.838,3.103-1.292,6.363-1.292,9.728H82.783c-4.038-27.576-12.316-112.531,28.988-162.438
				c3.928-4.746,3.264-11.778-1.482-15.706c-4.744-3.928-11.776-3.264-15.705,1.481c-56.3,68.028-33.185,185.099-32.173,190.05
				c1.061,5.192,5.629,8.921,10.928,8.921h124.102v13.235L47.513,229.832c-4.95,0.447-9.006,4.117-9.947,8.998
				c-0.249,1.291-6.078,32.105-4.657,73.188c1.902,54.97,16.145,102.101,41.19,136.296c2.185,2.983,5.574,4.565,9.008,4.565
				c2.287,0,4.596-0.702,6.581-2.157c4.971-3.64,6.048-10.62,2.408-15.591c-45.984-62.785-37.686-155.912-33.893-183.87
				l139.237-12.614v1.178c0,7.243,2.078,14.006,5.659,19.737l-77.998,7.833c-4.717,0.474-8.621,3.88-9.73,8.488
				c-0.844,3.509-19.808,87.566,56.422,230.217c2.009,3.76,5.863,5.9,9.848,5.9c1.774,0,3.574-0.425,5.248-1.32
				c5.433-2.904,7.484-9.661,4.58-15.094c-37.551-70.266-50.334-124.905-54.446-158.368c-2.844-23.148-2.042-39.611-1.091-48.489
				l49.416-4.963c-15.016,16.776-24.161,38.907-24.161,63.142c0,52.281,42.534,94.814,94.814,94.814s94.814-42.534,94.814-94.814
				c0-24.084-9.035-46.088-23.885-62.824l49.162,4.69c2.474,22.813,3.854,95.623-55.565,206.81
				c-2.904,5.433-0.852,12.192,4.58,15.094c1.674,0.896,3.474,1.32,5.248,1.32c3.984,0,7.838-2.141,9.848-5.9
				c76.231-142.651,57.267-226.708,56.422-230.217c-1.114-4.629-5.045-8.04-9.785-8.493l-78.173-7.459
				c3.725-5.81,5.895-12.707,5.895-20.106v-1.175l139.239,12.614c3.817,27.933,12.18,120.947-33.903,183.869
				c-3.64,4.97-2.561,11.951,2.408,15.591c1.987,1.456,4.295,2.157,6.581,2.157c3.435-0.001,6.823-1.582,9.008-4.565
				c25.044-34.196,39.288-81.326,41.19-136.296C480.511,270.937,474.681,240.122,474.433,238.831z M219.75,180.706
				c0-8.304,6.755-15.059,15.059-15.059h42.388c8.304,0,15.059,6.755,15.059,15.059v59.12c0,8.304-6.755,15.059-15.059,15.059
				h-42.388c-8.303,0-15.059-6.755-15.059-15.059V180.706z M328.508,346.91c0,39.979-32.525,72.505-72.505,72.505
				c-39.979,0-72.505-32.526-72.505-72.505c0-33.091,22.293-61.056,52.642-69.716h39.726
				C306.215,285.854,328.508,313.818,328.508,346.91z"/>
		</g>
	</g>
</g>
<g>
</g>
<g>
</g>
<g>
</g>
<g>
</g>
<g>
</g>
<g>
</g>
<g>
</g>
<g>
</g>
<g>
</g>
<g>
</g>
<g>
</g>
<g>
</g>
<g>
</g>
<g>
</g>
<g>
</g>
</svg>
