<svg width="62" height="62" viewBox="0 0 62 62" fill="none" xmlns="http://www.w3.org/2000/svg">
<path d="M56.9141 16.2266L57.0594 16.1297C56.7688 15.5969 56.3328 15.1125 55.8969 14.8704L32.5016 1.40474C32.1141 1.16255 31.5813 1.06567 31 1.06567C30.4187 1.06567 29.8859 1.21099 29.4984 1.40474L6.24844 14.9188C5.425 15.4032 4.84375 16.6141 4.84375 17.5344V44.5141C4.84375 45.0469 4.94062 45.6282 5.27969 46.161L5.18281 46.2094C5.425 46.5969 5.76406 46.936 6.10313 47.1297L29.45 60.6438C29.8375 60.886 30.3703 60.9829 30.9516 60.9829C31.5328 60.9829 32.0656 60.8376 32.4531 60.6438L55.7031 47.1297C56.5266 46.6454 57.1078 45.4344 57.1078 44.5141V17.486C57.1563 17.0985 57.1078 16.6625 56.9141 16.2266ZM31 42.8672C35.4078 42.8672 39.2828 40.4454 41.3172 36.861L47.5656 40.5422C44.2719 46.2579 38.0719 50.1329 31 50.1329C20.4406 50.1329 11.8672 41.5594 11.8672 31.0001C11.8672 20.4407 20.4406 11.8672 31 11.8672C38.1203 11.8672 44.3203 15.7907 47.6141 21.5547L41.3172 25.1875C39.2828 21.5547 35.4078 19.1329 31 19.1329C24.4609 19.1329 19.1328 24.461 19.1328 31.0001C19.1328 37.5391 24.4609 42.8672 31 42.8672Z" fill="#96A9EE"/>
</svg>
