<svg width="672" height="499" viewBox="0 0 672 499" fill="none" xmlns="http://www.w3.org/2000/svg">
  <g id="Rect">
    <g id="stars">
      <g id="star">
        
        <g id="Ellipse 10">
          <circle cx="81.5649" cy="219.181" r="0.816743" fill="white" />
          <circle cx="81.5649" cy="219.181" r="0.816743" fill="white" />
        </g>
        <g id="Ellipse 11">
          <circle cx="128.936" cy="135.873" r="2.45023" fill="white" />
          <circle cx="128.936" cy="135.873" r="2.45023" fill="white" />
        </g>
        <g id="Ellipse 16">
          <circle cx="109.334" cy="95.0358" r="2.45023" fill="white" />
          <circle cx="109.334" cy="95.0358" r="2.45023" fill="white" />
        </g>
        <g id="Ellipse 17">
          <circle cx="47.2617" cy="163.642" r="2.45023" fill="white" />
          <circle cx="47.2617" cy="163.642" r="2.45023" fill="white" />
        </g>
      </g>
      <g id="star_2">
        <g id="Ellipse 9_2">
          <circle cx="235.614" cy="90.4587" r="0.816743" transform="rotate(-78.9592 235.614 90.4587)" fill="white" />
          <circle cx="235.614" cy="90.4587" r="0.816743" transform="rotate(-78.9592 235.614 90.4587)" fill="white" />
        </g>
        <g id="Ellipse 10_2">
          <circle cx="357.383" cy="97.5754" r="0.816743" transform="rotate(-78.9592 357.383 97.5754)" fill="white" />
          <circle cx="357.383" cy="97.5754" r="0.816743" transform="rotate(-78.9592 357.383 97.5754)" fill="white" />
        </g>
        <g id="Ellipse 11_2">
          <circle cx="284.689" cy="35.127" r="2.45023" transform="rotate(-78.9592 284.689 35.127)" fill="white" />
          <circle cx="284.689" cy="35.127" r="2.45023" transform="rotate(-78.9592 284.689 35.127)" fill="white" />
        </g>
        <g id="Ellipse 15">
          <circle cx="381.705" cy="160.571" r="2.45023" transform="rotate(-78.9592 381.705 160.571)" fill="white" />
          <circle cx="381.705" cy="160.571" r="2.45023" transform="rotate(-78.9592 381.705 160.571)" fill="white" />
        </g>
        <g id="Ellipse 17_2">
          <circle cx="296.303" cy="120.608" r="2.45023" transform="rotate(-78.9592 296.303 120.608)" fill="white" />
          <circle cx="296.303" cy="120.608" r="2.45023" transform="rotate(-78.9592 296.303 120.608)" fill="white" />
        </g>
      </g>
      <g id="star_3">
        <g id="Ellipse 9_3">
          <circle cx="458.194" cy="73.2678" r="0.816743" transform="rotate(-62.2212 458.194 73.2678)" fill="white" />
          <circle cx="458.194" cy="73.2678" r="0.816743" transform="rotate(-62.2212 458.194 73.2678)" fill="white" />
        </g>
        <g id="Ellipse 10_3">
          <circle cx="572.754" cy="115.152" r="0.816743" transform="rotate(-62.2212 572.754 115.152)" fill="white" />
          <circle cx="572.754" cy="115.152" r="0.816743" transform="rotate(-62.2212 572.754 115.152)" fill="white" />
        </g>
        <g id="Ellipse 11_3">
          <circle cx="521.125" cy="34.4137" r="2.45023" transform="rotate(-62.2212 521.125 34.4137)" fill="white" />
          <circle cx="521.125" cy="34.4137" r="2.45023" transform="rotate(-62.2212 521.125 34.4137)" fill="white" />
        </g>
        <g id="Ellipse 16_2">
          <circle cx="475.859" cy="32.7239" r="2.45023" transform="rotate(-62.2212 475.859 32.7239)" fill="white" />
          <circle cx="475.859" cy="32.7239" r="2.45023" transform="rotate(-62.2212 475.859 32.7239)" fill="white" />
        </g>
      </g>
      <g id="star_4">
        <g id="Ellipse 16_3">
          <circle cx="607.224" cy="318.101" r="2.45023" transform="rotate(84.7399 607.224 318.101)" fill="white" />
          <circle cx="607.224" cy="318.101" r="2.45023" transform="rotate(84.7399 607.224 318.101)" fill="white" />
        </g>
        <g id="Ellipse 18">
          <circle cx="641.641" cy="282.124" r="0.816743" transform="rotate(84.7399 641.641 282.124)" fill="white" />
          <circle cx="641.641" cy="282.124" r="0.816743" transform="rotate(84.7399 641.641 282.124)" fill="white" />
        </g>
        <g id="Ellipse 12">
          <circle cx="668.586" cy="307.53" r="2.45023" transform="rotate(84.7399 668.586 307.53)" fill="white" />
          <circle cx="668.586" cy="307.53" r="2.45023" transform="rotate(84.7399 668.586 307.53)" fill="white" />
        </g>
        <g id="Ellipse 13">
          <circle cx="649.572" cy="234.643" r="3.26697" transform="rotate(84.7399 649.572 234.643)" fill="white" />
          <circle cx="649.572" cy="234.643" r="3.26697" transform="rotate(84.7399 649.572 234.643)" fill="white" />
        </g>
      </g>
      <g id="star_5">
        <g id="Ellipse 9_4">
          <circle cx="280.627" cy="288.638" r="1.44348" transform="rotate(-131.519 280.627 288.638)" fill="white" />
          <circle cx="280.627" cy="288.638" r="1.44348" transform="rotate(-131.519 280.627 288.638)" fill="white" />
        </g>
        <g id="Ellipse 10_4">
          <circle cx="421.447" cy="125.411" r="1.44348" transform="rotate(-131.519 421.447 125.411)" fill="white" />
          <circle cx="421.447" cy="125.411" r="1.44348" transform="rotate(-131.519 421.447 125.411)" fill="white" />
        </g>
        <g id="Ellipse 15_2">
          <circle cx="535.98" cy="158.965" r="4.33044" transform="rotate(-131.519 535.98 158.965)" fill="white" />
          <circle cx="535.98" cy="158.965" r="4.33044" transform="rotate(-131.519 535.98 158.965)" fill="white" />
        </g>
        <g id="Ellipse 17_3">
          <circle cx="388.141" cy="235.869" r="4.33044" transform="rotate(-131.519 388.141 235.869)" fill="white" />
          <circle cx="388.141" cy="235.869" r="4.33044" transform="rotate(-131.519 388.141 235.869)" fill="white" />
        </g>
      </g>
    </g>
    <path id="meteor3" fill-rule="evenodd" clip-rule="evenodd" d="M546.106 82.4444L661.04 0L562.962 99.9014C562.574 100.36 562.154 100.788 561.705 101.182L561.237 101.659L561.195 101.606C558.631 103.624 555.267 104.611 551.789 104.066C545.154 103.027 540.617 96.8054 541.657 90.1698C542.151 87.012 543.819 84.3295 546.148 82.4971L546.106 82.4444Z" fill="url(#paint0_linear_7_668)" />
    <path id="meteor2" fill-rule="evenodd" clip-rule="evenodd" d="M605.719 346.311L650.234 314.38L612.248 353.073C612.098 353.25 611.935 353.416 611.761 353.568L611.58 353.753L611.563 353.733C610.57 354.514 609.267 354.896 607.921 354.685C605.35 354.283 603.593 351.873 603.996 349.303C604.188 348.08 604.834 347.041 605.735 346.331L605.719 346.311Z" fill="url(#paint1_linear_7_668)" />
    <path id="meteor1" fill-rule="evenodd" clip-rule="evenodd" d="M44.3067 201.598L118.402 148.448L55.1739 212.852C54.9236 213.148 54.6523 213.424 54.3626 213.679L54.0612 213.986L54.0344 213.952C52.3815 215.253 50.2128 215.889 47.9707 215.538C43.6929 214.868 40.7682 210.857 41.4383 206.579C41.7571 204.543 42.8327 202.814 44.3335 201.632L44.3067 201.598Z" fill="url(#paint2_linear_7_668)" />
    <path id="myWorld" fill-rule="evenodd" clip-rule="evenodd" d="M97.6037 390.571H17.9219C8.02389 390.571 0 398.595 0 408.493C0 418.391 8.02391 426.415 17.9219 426.415L346.961 426.415C364.838 426.475 364.822 462.258 346.916 462.258L364.838 462.258H547.896L565.818 462.258C547.913 462.258 547.897 426.48 565.77 426.415H623.424C633.322 426.415 641.346 418.391 641.346 408.493C641.346 398.595 633.322 390.571 623.424 390.571H550.665C550.646 359.193 544.787 328.126 533.421 299.136C522.037 270.099 505.351 243.714 484.316 221.49C463.28 199.266 438.308 181.637 410.824 169.609C383.34 157.581 353.883 151.391 324.134 151.391C294.386 151.391 264.929 157.581 237.445 169.609C209.961 181.637 184.988 199.266 163.953 221.49C142.918 243.714 126.232 270.099 114.847 299.136C103.482 328.126 97.6229 359.193 97.6037 390.571ZM235.544 462.258C225.646 462.258 217.622 470.282 217.622 480.18C217.622 490.078 225.646 498.102 235.544 498.102H602.942C612.84 498.102 620.864 490.078 620.864 480.18C620.864 470.282 612.84 462.258 602.942 462.258H235.544Z" fill="url(#paint3_linear_7_668)" />
  </g>
  <defs>
    <linearGradient id="paint0_linear_7_668" x1="554.383" y1="88.723" x2="664.222" y2="-5.34112" gradientUnits="userSpaceOnUse">
      <stop offset="0.109375" stop-color="#B6AFFF" />
      <stop offset="1" stop-color="#B6AFFF" stop-opacity="0" />
    </linearGradient>
    <linearGradient id="paint1_linear_7_668" x1="608.925" y1="348.743" x2="651.467" y2="312.311" gradientUnits="userSpaceOnUse">
      <stop offset="0.109375" stop-color="#B6AFFF" />
      <stop offset="1" stop-color="#B6AFFF" stop-opacity="0" />
    </linearGradient>
    <linearGradient id="paint2_linear_7_668" x1="49.6426" y1="205.646" x2="120.454" y2="145.005" gradientUnits="userSpaceOnUse">
      <stop offset="0.109375" stop-color="#B6AFFF" />
      <stop offset="1" stop-color="#B6AFFF" stop-opacity="0" />
    </linearGradient>
    <linearGradient id="paint3_linear_7_668" x1="320.673" y1="151.391" x2="320.673" y2="498.102" gradientUnits="userSpaceOnUse">
      <stop stop-color="#FEC659" />
      <stop offset="0.729167" stop-color="#C892FF" />
    </linearGradient>
  </defs>
</svg>