<svg width="525" height="390" viewBox="0 0 525 390" fill="none" xmlns="http://www.w3.org/2000/svg">
<circle cx="50.9558" cy="77.6892" r="0.638015" fill="white"/>
<circle cx="50.9558" cy="77.6892" r="0.638015" fill="white"/>
<circle cx="63.7161" cy="172.115" r="0.638015" fill="white"/>
<circle cx="63.7161" cy="172.115" r="0.638015" fill="white"/>
<circle cx="100.721" cy="107.038" r="1.91404" fill="white"/>
<circle cx="100.721" cy="107.038" r="1.91404" fill="white"/>
<circle cx="85.4086" cy="75.1371" r="1.91404" fill="white"/>
<circle cx="85.4086" cy="75.1371" r="1.91404" fill="white"/>
<circle cx="36.9195" cy="128.73" r="1.91404" fill="white"/>
<circle cx="36.9195" cy="128.73" r="1.91404" fill="white"/>
<circle cx="184.054" cy="71.5617" r="0.638015" transform="rotate(-78.9592 184.054 71.5617)" fill="white"/>
<circle cx="184.054" cy="71.5617" r="0.638015" transform="rotate(-78.9592 184.054 71.5617)" fill="white"/>
<circle cx="279.177" cy="77.1209" r="0.638015" transform="rotate(-78.9592 279.177 77.1209)" fill="white"/>
<circle cx="279.177" cy="77.1209" r="0.638015" transform="rotate(-78.9592 279.177 77.1209)" fill="white"/>
<circle cx="222.39" cy="28.3382" r="1.91404" transform="rotate(-78.9592 222.39 28.3382)" fill="white"/>
<circle cx="222.39" cy="28.3382" r="1.91404" transform="rotate(-78.9592 222.39 28.3382)" fill="white"/>
<circle cx="298.177" cy="126.331" r="1.91404" transform="rotate(-78.9592 298.177 126.331)" fill="white"/>
<circle cx="298.177" cy="126.331" r="1.91404" transform="rotate(-78.9592 298.177 126.331)" fill="white"/>
<circle cx="231.463" cy="95.113" r="1.91404" transform="rotate(-78.9592 231.463 95.113)" fill="white"/>
<circle cx="231.463" cy="95.113" r="1.91404" transform="rotate(-78.9592 231.463 95.113)" fill="white"/>
<circle cx="357.927" cy="58.1326" r="0.638015" transform="rotate(-62.2212 357.927 58.1326)" fill="white"/>
<circle cx="357.927" cy="58.1326" r="0.638015" transform="rotate(-62.2212 357.927 58.1326)" fill="white"/>
<circle cx="447.418" cy="90.8511" r="0.638015" transform="rotate(-62.2212 447.418 90.8511)" fill="white"/>
<circle cx="447.418" cy="90.8511" r="0.638015" transform="rotate(-62.2212 447.418 90.8511)" fill="white"/>
<circle cx="407.087" cy="27.781" r="1.91404" transform="rotate(-62.2212 407.087 27.781)" fill="white"/>
<circle cx="407.087" cy="27.781" r="1.91404" transform="rotate(-62.2212 407.087 27.781)" fill="white"/>
<circle cx="371.726" cy="26.461" r="1.91404" transform="rotate(-62.2212 371.726 26.461)" fill="white"/>
<circle cx="371.726" cy="26.461" r="1.91404" transform="rotate(-62.2212 371.726 26.461)" fill="white"/>
<circle cx="474.345" cy="249.389" r="1.91404" transform="rotate(84.7399 474.345 249.389)" fill="white"/>
<circle cx="474.345" cy="249.389" r="1.91404" transform="rotate(84.7399 474.345 249.389)" fill="white"/>
<circle cx="501.23" cy="221.285" r="0.638015" transform="rotate(84.7399 501.23 221.285)" fill="white"/>
<circle cx="501.23" cy="221.285" r="0.638015" transform="rotate(84.7399 501.23 221.285)" fill="white"/>
<circle cx="522.279" cy="241.131" r="1.91404" transform="rotate(84.7399 522.279 241.131)" fill="white"/>
<circle cx="522.279" cy="241.131" r="1.91404" transform="rotate(84.7399 522.279 241.131)" fill="white"/>
<circle cx="507.426" cy="184.194" r="2.55206" transform="rotate(84.7399 507.426 184.194)" fill="white"/>
<circle cx="507.426" cy="184.194" r="2.55206" transform="rotate(84.7399 507.426 184.194)" fill="white"/>
<circle cx="219.217" cy="226.373" r="1.1276" transform="rotate(-131.519 219.217 226.373)" fill="white"/>
<circle cx="219.217" cy="226.373" r="1.1276" transform="rotate(-131.519 219.217 226.373)" fill="white"/>
<circle cx="329.222" cy="98.8651" r="1.1276" transform="rotate(-131.519 329.222 98.8651)" fill="white"/>
<circle cx="329.222" cy="98.8651" r="1.1276" transform="rotate(-131.519 329.222 98.8651)" fill="white"/>
<circle cx="418.692" cy="125.077" r="3.38281" transform="rotate(-131.519 418.692 125.077)" fill="white"/>
<circle cx="418.692" cy="125.077" r="3.38281" transform="rotate(-131.519 418.692 125.077)" fill="white"/>
<circle cx="303.204" cy="185.151" r="3.38281" transform="rotate(-131.519 303.204 185.151)" fill="white"/>
<circle cx="303.204" cy="185.151" r="3.38281" transform="rotate(-131.519 303.204 185.151)" fill="white"/>
<path fill-rule="evenodd" clip-rule="evenodd" d="M426.601 65.3011L516.384 0.898071L439.769 78.938C439.466 79.296 439.137 79.6303 438.787 79.9386L438.421 80.311L438.389 80.2697C436.386 81.8462 433.758 82.6171 431.041 82.1916C425.858 81.3797 422.314 76.5195 423.126 71.336C423.512 68.8691 424.815 66.7737 426.634 65.3423L426.601 65.3011Z" fill="url(#paint0_linear_7_668)"/>
<path fill-rule="evenodd" clip-rule="evenodd" d="M473.169 271.426L507.943 246.482L478.269 276.708C478.152 276.846 478.025 276.975 477.889 277.095L477.747 277.239L477.735 277.223C476.959 277.834 475.941 278.132 474.889 277.967C472.881 277.653 471.509 275.771 471.823 273.763C471.973 272.808 472.478 271.996 473.182 271.442L473.169 271.426Z" fill="url(#paint1_linear_7_668)"/>
<path fill-rule="evenodd" clip-rule="evenodd" d="M34.6111 158.381L92.4922 116.861L43.1002 167.172C42.9047 167.403 42.6927 167.618 42.4665 167.817L42.231 168.057L42.2101 168.031C40.9189 169.047 39.2247 169.544 37.4733 169.27C34.1316 168.746 31.847 165.613 32.3704 162.271C32.6195 160.681 33.4596 159.33 34.632 158.407L34.6111 158.381Z" fill="url(#paint2_linear_7_668)"/>
<path fill-rule="evenodd" clip-rule="evenodd" d="M76.2451 306H14.0001C6.26807 306 6.10352e-05 312.268 6.10352e-05 320C6.10352e-05 327.732 6.26806 334 14 334H271.036C285 334.048 284.988 362 271 362L285 362H428L442 362C428.012 362 428 334.048 441.964 334H487C494.732 334 501 327.732 501 320C501 312.268 494.732 306 487 306H430.163C430.148 281.489 425.571 257.22 416.693 234.574C407.799 211.891 394.765 191.28 378.333 173.919C361.901 156.559 342.393 142.787 320.923 133.391C299.453 123.996 276.442 119.16 253.204 119.16C229.965 119.16 206.954 123.996 185.485 133.391C164.015 142.787 144.507 156.559 128.075 173.919C111.643 191.28 98.6083 211.891 89.7153 234.574C80.8368 257.22 76.2601 281.489 76.2451 306ZM184 362C176.268 362 170 368.268 170 376C170 383.732 176.268 390 184 390H471C478.732 390 485 383.732 485 376C485 368.268 478.732 362 471 362H184Z" fill="url(#paint3_linear_7_668)"/>
<defs>
<linearGradient id="paint0_linear_7_668" x1="433.067" y1="70.2058" x2="518.87" y2="-3.27425" gradientUnits="userSpaceOnUse">
<stop offset="0.109375" stop-color="#B6AFFF"/>
<stop offset="1" stop-color="#B6AFFF" stop-opacity="0"/>
</linearGradient>
<linearGradient id="paint1_linear_7_668" x1="475.674" y1="273.325" x2="508.906" y2="244.866" gradientUnits="userSpaceOnUse">
<stop offset="0.109375" stop-color="#B6AFFF"/>
<stop offset="1" stop-color="#B6AFFF" stop-opacity="0"/>
</linearGradient>
<linearGradient id="paint2_linear_7_668" x1="38.7793" y1="161.543" x2="94.0949" y2="114.171" gradientUnits="userSpaceOnUse">
<stop offset="0.109375" stop-color="#B6AFFF"/>
<stop offset="1" stop-color="#B6AFFF" stop-opacity="0"/>
</linearGradient>
<linearGradient id="paint3_linear_7_668" x1="250.5" y1="119.16" x2="250.5" y2="390" gradientUnits="userSpaceOnUse">
<stop stop-color="#FEC659"/>
<stop offset="0.729167" stop-color="#C892FF"/>
</linearGradient>
</defs>
</svg>
