<svg width="182" height="182" viewBox="0 0 182 182" fill="none" xmlns="http://www.w3.org/2000/svg">
<path d="M0 0V182H182V0H0ZM96.2693 155.083C93.5829 160.541 88.4549 164.128 82.513 165.859C73.3824 167.955 64.6493 166.76 58.1526 162.861C53.805 160.193 50.4096 156.088 48.1048 151.357L61.9659 142.869C62.0867 142.92 62.4508 143.578 62.9371 144.428C64.7046 147.389 66.2291 149.486 69.2255 150.958C72.1695 151.963 78.6327 152.605 81.1283 147.424C82.6528 144.789 82.1679 136.318 82.1679 126.946C82.1664 112.218 82.2349 97.552 82.2349 82.992H99.2832C99.2832 99.008 99.3705 114.177 99.2832 129.805C99.3196 139.386 100.151 147.927 96.2693 155.083ZM166.993 150.266C161.067 170.537 128.028 171.195 114.825 157.803C112.035 154.65 110.286 153.004 108.622 149.365C115.638 145.329 115.638 145.329 122.466 141.379C126.174 147.079 129.603 150.214 135.772 151.497C144.141 152.519 152.561 149.643 150.673 140.754C148.732 133.495 133.536 131.729 123.194 123.965C112.694 116.914 110.234 99.7797 118.862 89.9895C121.738 86.3685 126.641 83.6661 131.787 82.3674L137.157 81.6729C147.467 81.4647 153.911 84.1874 158.641 89.4697C159.958 90.8034 161.032 92.242 163.041 95.3593C157.549 98.8595 157.567 98.826 149.7 103.919C148.02 100.299 145.232 98.0281 142.285 97.0409C137.71 95.6548 131.941 97.1618 130.744 101.996C130.329 103.485 130.415 104.871 131.075 107.332C132.928 111.559 139.148 113.396 144.728 115.96C160.789 122.474 166.213 129.459 167.546 137.773C168.83 144.93 167.236 149.573 166.993 150.266V150.266Z" fill="#FFDEAD"/>
</svg>
