<svg width="79" height="43" viewBox="0 0 79 43" fill="none" xmlns="http://www.w3.org/2000/svg">
<path fill-rule="evenodd" clip-rule="evenodd" d="M12.0945 29.7645H2.37018C1.16223 29.7645 0.182983 30.7437 0.182983 31.9516C0.182983 33.1596 1.16223 34.1388 2.37018 34.1388H42.5291C44.707 34.1503 44.7047 38.5107 42.5222 38.5131H42.5204L28.9286 38.5131C27.7207 38.5131 26.7415 39.4924 26.7415 40.7003C26.7415 41.9082 27.7207 42.8875 28.9286 42.8875H73.7656C74.9736 42.8875 75.9528 41.9082 75.9528 40.7003C75.9528 39.4924 74.9736 38.5131 73.7656 38.5131L69.2351 38.5131L69.2322 38.5131C67.0508 38.5093 67.049 34.1503 69.2264 34.1388H76.2653C77.4733 34.1388 78.4525 33.1596 78.4525 31.9516C78.4525 30.7437 77.4733 29.7645 76.2653 29.7645H67.3858C67.3835 25.9352 66.6685 22.1437 65.2814 18.6057C63.8921 15.062 61.8557 11.8421 59.2886 9.12991C56.7214 6.41767 53.6738 4.26621 50.3197 2.79836C46.9656 1.33051 43.3706 0.575012 39.7402 0.575012C36.1097 0.575012 32.5147 1.33051 29.1606 2.79836C25.8065 4.26621 22.7589 6.41767 20.1917 9.12991C17.6246 11.8421 15.5882 15.062 14.1989 18.6057C12.8118 22.1437 12.0968 25.9352 12.0945 29.7645Z" fill="url(#paint0_linear_18_58)"/>
<defs>
<linearGradient id="paint0_linear_18_58" x1="39.3177" y1="0.575012" x2="39.3177" y2="42.8875" gradientUnits="userSpaceOnUse">
<stop stop-color="#FEC659"/>
<stop offset="0.645833" stop-color="#C892FF"/>
</linearGradient>
</defs>
</svg>
