<svg width="642" height="348" viewBox="0 0 642 348" fill="none" xmlns="http://www.w3.org/2000/svg">
<path fill-rule="evenodd" clip-rule="evenodd" d="M97.6037 239.571H17.9219C8.02389 239.571 0 247.595 0 257.493C0 267.391 8.02391 275.415 17.9219 275.415L346.961 275.415C364.838 275.475 364.822 311.258 346.916 311.258L364.838 311.258H547.896L565.818 311.258C547.913 311.258 547.897 275.48 565.77 275.415H623.424C633.322 275.415 641.346 267.391 641.346 257.493C641.346 247.595 633.322 239.571 623.424 239.571H550.665C550.646 208.193 544.787 177.126 533.421 148.136C522.037 119.099 505.351 92.7145 484.316 70.4902C463.28 48.266 438.308 30.6367 410.824 18.609C383.34 6.58135 353.883 0.390786 324.134 0.390787C294.386 0.390788 264.929 6.58136 237.445 18.609C209.961 30.6367 184.988 48.266 163.953 70.4902C142.918 92.7145 126.232 119.099 114.847 148.136C103.482 177.126 97.6229 208.193 97.6037 239.571ZM235.544 311.258C225.646 311.258 217.622 319.282 217.622 329.18C217.622 339.078 225.646 347.102 235.544 347.102H602.942C612.84 347.102 620.864 339.078 620.864 329.18C620.864 319.282 612.84 311.258 602.942 311.258H235.544Z" fill="url(#paint0_linear_18_59)"/>
<defs>
<linearGradient id="paint0_linear_18_59" x1="320.673" y1="0.390778" x2="320.673" y2="347.102" gradientUnits="userSpaceOnUse">
<stop stop-color="#FEC659"/>
<stop offset="0.729167" stop-color="#C892FF"/>
</linearGradient>
</defs>
</svg>
