<svg width="677" height="358" viewBox="0 0 677 358" fill="none" xmlns="http://www.w3.org/2000/svg">
<path d="M677 357.937C677 310.973 668.245 264.47 651.234 221.081C634.223 177.693 609.291 138.269 577.859 105.061C546.427 71.8528 509.113 45.5107 468.045 27.5386C426.978 9.56652 382.962 0.316405 338.511 0.316406C294.061 0.316408 250.045 9.56653 208.978 27.5386C167.91 45.5107 130.595 71.8529 99.1639 105.061C67.7324 138.269 42.7995 177.693 25.7888 221.081C8.77821 264.47 0.0229458 310.973 0.0229492 357.937L338.511 357.937L677 357.937Z" fill="url(#paint0_linear_47_54)"/>
<defs>
<linearGradient id="paint0_linear_47_54" x1="338.511" y1="0.316406" x2="338.511" y2="357.937" gradientUnits="userSpaceOnUse">
<stop stop-color="#FEC659"/>
<stop offset="0.729167" stop-color="#C892FF"/>
</linearGradient>
</defs>
</svg>
