<svg width="639" height="389" viewBox="0 0 639 389" fill="none" xmlns="http://www.w3.org/2000/svg">
<circle cx="33.8715" cy="68.4154" r="0.458568" fill="white"/>
<circle cx="43.0428" cy="136.283" r="0.458568" fill="white"/>
<circle cx="69.6398" cy="89.5095" r="1.3757" fill="white"/>
<circle cx="58.6341" cy="66.5811" r="1.3757" fill="white"/>
<circle cx="23.783" cy="105.101" r="1.3757" fill="white"/>
<circle cx="129.535" cy="64.0113" r="0.458568" transform="rotate(-78.9592 129.535 64.0113)" fill="white"/>
<circle cx="197.903" cy="68.007" r="0.458568" transform="rotate(-78.9592 197.903 68.007)" fill="white"/>
<circle cx="157.089" cy="32.9447" r="1.3757" transform="rotate(-78.9592 157.089 32.9447)" fill="white"/>
<circle cx="211.559" cy="103.377" r="1.3757" transform="rotate(-78.9592 211.559 103.377)" fill="white"/>
<circle cx="163.609" cy="80.9386" r="1.3757" transform="rotate(-78.9592 163.609 80.9386)" fill="white"/>
<circle cx="254.505" cy="54.3592" r="0.458568" transform="rotate(-62.2212 254.505 54.3592)" fill="white"/>
<circle cx="318.826" cy="77.8754" r="0.458568" transform="rotate(-62.2212 318.826 77.8754)" fill="white"/>
<circle cx="289.838" cy="32.5442" r="1.3757" transform="rotate(-62.2212 289.838 32.5442)" fill="white"/>
<circle cx="264.423" cy="31.5955" r="1.3757" transform="rotate(-62.2212 264.423 31.5955)" fill="white"/>
<circle cx="338.179" cy="191.823" r="1.3757" transform="rotate(84.7399 338.179 191.823)" fill="white"/>
<circle cx="357.503" cy="171.624" r="0.458568" transform="rotate(84.7399 357.503 171.624)" fill="white"/>
<circle cx="372.631" cy="185.888" r="1.3757" transform="rotate(84.7399 372.631 185.888)" fill="white"/>
<circle cx="361.956" cy="144.965" r="1.83427" transform="rotate(84.7399 361.956 144.965)" fill="white"/>
<circle cx="5.55772" cy="186.586" r="1.81173" transform="rotate(138.418 5.55772 186.586)" fill="white"/>
<circle cx="42.0641" cy="191.333" r="0.603909" transform="rotate(138.418 42.0641 191.333)" fill="white"/>
<circle cx="38.7296" cy="218.512" r="1.81173" transform="rotate(138.418 38.7296 218.512)" fill="white"/>
<circle cx="73.8246" cy="175.263" r="2.41564" transform="rotate(138.418 73.8246 175.263)" fill="white"/>
<circle cx="240.642" cy="75.5319" r="0.31451" transform="rotate(-45 240.642 75.5319)" fill="white"/>
<circle cx="278.004" cy="103.998" r="0.31451" transform="rotate(-45 278.004 103.998)" fill="white"/>
<circle cx="272.222" cy="129.351" r="0.94353" transform="rotate(-45 272.222 129.351)" fill="white"/>
<circle cx="253.541" cy="98.2159" r="0.94353" transform="rotate(-45 253.541 98.2159)" fill="white"/>
<circle cx="296.871" cy="48.4154" r="0.458568" fill="white"/>
<circle cx="306.043" cy="116.283" r="0.458568" fill="white"/>
<circle cx="332.64" cy="69.5095" r="1.3757" fill="white"/>
<circle cx="321.634" cy="46.5811" r="1.3757" fill="white"/>
<circle cx="286.783" cy="85.1008" r="1.3757" fill="white"/>
<circle cx="392.535" cy="44.0113" r="0.458568" transform="rotate(-78.9592 392.535 44.0113)" fill="white"/>
<circle cx="460.903" cy="48.007" r="0.458568" transform="rotate(-78.9592 460.903 48.007)" fill="white"/>
<circle cx="420.089" cy="12.9447" r="1.3757" transform="rotate(-78.9592 420.089 12.9447)" fill="white"/>
<circle cx="474.559" cy="83.3767" r="1.3757" transform="rotate(-78.9592 474.559 83.3767)" fill="white"/>
<circle cx="426.609" cy="60.9386" r="1.3757" transform="rotate(-78.9592 426.609 60.9386)" fill="white"/>
<circle cx="517.505" cy="34.3593" r="0.458568" transform="rotate(-62.2212 517.505 34.3593)" fill="white"/>
<circle cx="581.826" cy="57.8754" r="0.458568" transform="rotate(-62.2212 581.826 57.8754)" fill="white"/>
<circle cx="552.838" cy="12.5443" r="1.3757" transform="rotate(-62.2212 552.838 12.5443)" fill="white"/>
<circle cx="527.423" cy="11.5955" r="1.3757" transform="rotate(-62.2212 527.423 11.5955)" fill="white"/>
<circle cx="601.179" cy="171.823" r="1.3757" transform="rotate(84.7399 601.179 171.823)" fill="white"/>
<circle cx="620.503" cy="151.624" r="0.458568" transform="rotate(84.7399 620.503 151.624)" fill="white"/>
<circle cx="635.631" cy="165.888" r="1.3757" transform="rotate(84.7399 635.631 165.888)" fill="white"/>
<circle cx="624.956" cy="124.965" r="1.83427" transform="rotate(84.7399 624.956 124.965)" fill="white"/>
<circle cx="268.558" cy="166.586" r="1.81173" transform="rotate(138.418 268.558 166.586)" fill="white"/>
<circle cx="305.064" cy="171.333" r="0.603909" transform="rotate(138.418 305.064 171.333)" fill="white"/>
<circle cx="301.729" cy="198.512" r="1.81173" transform="rotate(138.418 301.729 198.512)" fill="white"/>
<circle cx="336.825" cy="155.263" r="2.41564" transform="rotate(138.418 336.825 155.263)" fill="white"/>
<circle cx="503.642" cy="55.532" r="0.31451" transform="rotate(-45 503.642 55.532)" fill="white"/>
<circle cx="541.004" cy="83.9981" r="0.31451" transform="rotate(-45 541.004 83.9981)" fill="white"/>
<circle cx="535.222" cy="109.351" r="0.94353" transform="rotate(-45 535.222 109.351)" fill="white"/>
<circle cx="516.541" cy="78.216" r="0.94353" transform="rotate(-45 516.541 78.216)" fill="white"/>
<circle cx="372.246" cy="79.4641" r="0.458568" transform="rotate(29.6716 372.246 79.4641)" fill="white"/>
<circle cx="346.618" cy="142.973" r="0.458568" transform="rotate(29.6716 346.618 142.973)" fill="white"/>
<circle cx="392.882" cy="115.499" r="1.3757" transform="rotate(29.6716 392.882 115.499)" fill="white"/>
<circle cx="394.669" cy="90.1286" r="1.3757" transform="rotate(29.6716 394.669 90.1286)" fill="white"/>
<circle cx="345.32" cy="106.345" r="1.3757" transform="rotate(29.6716 345.32 106.345)" fill="white"/>
<circle cx="457.546" cy="122.994" r="0.458568" transform="rotate(-49.2875 457.546 122.994)" fill="white"/>
<circle cx="514.971" cy="160.31" r="0.458568" transform="rotate(-49.2875 514.971 160.31)" fill="white"/>
<circle cx="496.865" cy="109.641" r="1.3757" transform="rotate(-49.2875 496.865 109.641)" fill="white"/>
<circle cx="509.328" cy="197.802" r="1.3757" transform="rotate(-49.2875 509.328 197.802)" fill="white"/>
<circle cx="478.773" cy="154.569" r="1.3757" transform="rotate(-49.2875 478.773 154.569)" fill="white"/>
<circle cx="570.907" cy="176.471" r="0.458568" transform="rotate(-32.5496 570.907 176.471)" fill="white"/>
<circle cx="615.153" cy="228.744" r="0.458568" transform="rotate(-32.5496 615.153 228.744)" fill="white"/>
<circle cx="612.406" cy="175.007" r="1.3757" transform="rotate(-32.5496 612.406 175.007)" fill="white"/>
<circle cx="590.793" cy="161.602" r="1.3757" transform="rotate(-32.5496 590.793 161.602)" fill="white"/>
<circle cx="575.561" cy="337.331" r="1.3757" transform="rotate(114.412 575.561 337.331)" fill="white"/>
<circle cx="602.35" cy="329.346" r="0.458568" transform="rotate(114.412 602.35 329.346)" fill="white"/>
<circle cx="608.434" cy="349.229" r="1.3757" transform="rotate(114.412 608.434 349.229)" fill="white"/>
<circle cx="619.416" cy="308.387" r="1.83427" transform="rotate(114.412 619.416 308.387)" fill="white"/>
<circle cx="289.147" cy="168.124" r="1.81173" transform="rotate(168.09 289.147 168.124)" fill="white"/>
<circle cx="318.516" cy="190.32" r="0.603909" transform="rotate(168.09 318.516 190.32)" fill="white"/>
<circle cx="302.164" cy="212.285" r="1.81173" transform="rotate(168.09 302.164 212.285)" fill="white"/>
<circle cx="354.067" cy="192.079" r="2.41564" transform="rotate(168.09 354.067 192.079)" fill="white"/>
<circle cx="548.381" cy="188.005" r="0.31451" transform="rotate(-15.3284 548.381 188.005)" fill="white"/>
<circle cx="566.752" cy="231.234" r="0.31451" transform="rotate(-15.3284 566.752 231.234)" fill="white"/>
<circle cx="549.178" cy="250.4" r="0.94353" transform="rotate(-15.3284 549.178 250.4)" fill="white"/>
<circle cx="548.359" cy="214.1" r="0.94353" transform="rotate(-15.3284 548.359 214.1)" fill="white"/>
<circle cx="195.692" cy="157.614" r="0.458568" transform="rotate(141.796 195.692 157.614)" fill="white"/>
<circle cx="146.511" cy="109.954" r="0.458568" transform="rotate(141.796 146.511 109.954)" fill="white"/>
<circle cx="154.539" cy="163.159" r="1.3757" transform="rotate(141.796 154.539 163.159)" fill="white"/>
<circle cx="177.367" cy="174.37" r="1.3757" transform="rotate(141.796 177.367 174.37)" fill="white"/>
<circle cx="180.931" cy="122.546" r="1.3757" transform="rotate(141.796 180.931 122.546)" fill="white"/>
<circle cx="123.242" cy="220.239" r="0.458568" transform="rotate(62.8366 123.242 220.239)" fill="white"/>
<circle cx="67.0462" cy="259.383" r="0.458568" transform="rotate(62.8366 67.0462 259.383)" fill="white"/>
<circle cx="120.804" cy="261.693" r="1.3757" transform="rotate(62.8366 120.804 261.693)" fill="white"/>
<circle cx="34.4401" cy="240.035" r="1.3757" transform="rotate(62.8366 34.4401 240.035)" fill="white"/>
<circle cx="85.997" cy="228.011" r="1.3757" transform="rotate(62.8366 85.997 228.011)" fill="white"/>
<circle cx="144.857" cy="47.2427" r="1.81173" transform="rotate(-79.7863 144.857 47.2427)" fill="white"/>
<circle cx="113.234" cy="66.0904" r="0.603909" transform="rotate(-79.7863 113.234 66.0904)" fill="white"/>
<circle cx="99.0443" cy="42.6703" r="1.81173" transform="rotate(-79.7863 99.0443 42.6703)" fill="white"/>
<circle cx="98.2147" cy="98.3614" r="2.41564" transform="rotate(-79.7863 98.2147 98.3614)" fill="white"/>
<circle cx="90.654" cy="314.239" r="0.458568" transform="rotate(62.8366 90.654 314.239)" fill="white"/>
<circle cx="34.4582" cy="353.383" r="0.458568" transform="rotate(62.8366 34.4582 353.383)" fill="white"/>
<circle cx="88.2156" cy="355.693" r="1.3757" transform="rotate(62.8366 88.2156 355.693)" fill="white"/>
<circle cx="1.85205" cy="334.035" r="1.3757" transform="rotate(62.8366 1.85205 334.035)" fill="white"/>
<circle cx="53.4089" cy="322.011" r="1.3757" transform="rotate(62.8366 53.4089 322.011)" fill="white"/>
<circle cx="112.269" cy="141.243" r="1.81173" transform="rotate(-79.7863 112.269 141.243)" fill="white"/>
<circle cx="80.6455" cy="160.09" r="0.603909" transform="rotate(-79.7863 80.6455 160.09)" fill="white"/>
<circle cx="66.4563" cy="136.67" r="1.81173" transform="rotate(-79.7863 66.4563 136.67)" fill="white"/>
<circle cx="65.6266" cy="192.361" r="2.41564" transform="rotate(-79.7863 65.6266 192.361)" fill="white"/>
<circle cx="403.608" cy="338.625" r="0.458568" transform="rotate(-137.527 403.608 338.625)" fill="white"/>
<circle cx="442.671" cy="282.374" r="0.458568" transform="rotate(-137.527 442.671 282.374)" fill="white"/>
<circle cx="391.469" cy="298.914" r="1.3757" transform="rotate(-137.527 391.469 298.914)" fill="white"/>
<circle cx="384.104" cy="323.257" r="1.3757" transform="rotate(-137.527 384.104 323.257)" fill="white"/>
<circle cx="435.82" cy="318.379" r="1.3757" transform="rotate(-137.527 435.82 318.379)" fill="white"/>
<circle cx="330.073" cy="277.277" r="0.458568" transform="rotate(143.514 330.073 277.277)" fill="white"/>
<circle cx="282.343" cy="228.164" r="0.458568" transform="rotate(143.514 282.343 228.164)" fill="white"/>
<circle cx="288.772" cy="281.586" r="1.3757" transform="rotate(143.514 288.772 281.586)" fill="white"/>
<circle cx="296.154" cy="192.855" r="1.3757" transform="rotate(143.514 296.154 192.855)" fill="white"/>
<circle cx="316.37" cy="241.783" r="1.3757" transform="rotate(143.514 316.37 241.783)" fill="white"/>
<circle cx="504.286" cy="270.583" r="1.81173" transform="rotate(0.891282 504.286 270.583)" fill="white"/>
<circle cx="480.565" cy="242.43" r="0.603909" transform="rotate(0.891282 480.565 242.43)" fill="white"/>
<circle cx="501.377" cy="224.635" r="1.81173" transform="rotate(0.891282 501.377 224.635)" fill="white"/>
<circle cx="446.287" cy="232.837" r="2.41564" transform="rotate(0.891282 446.287 232.837)" fill="white"/>
<circle cx="232.036" cy="260.346" r="0.458568" transform="rotate(143.514 232.036 260.346)" fill="white"/>
<circle cx="184.306" cy="211.234" r="0.458568" transform="rotate(143.514 184.306 211.234)" fill="white"/>
<circle cx="190.735" cy="264.655" r="1.3757" transform="rotate(143.514 190.735 264.655)" fill="white"/>
<circle cx="198.117" cy="175.924" r="1.3757" transform="rotate(143.514 198.117 175.924)" fill="white"/>
<circle cx="218.333" cy="224.852" r="1.3757" transform="rotate(143.514 218.333 224.852)" fill="white"/>
<circle cx="406.249" cy="253.652" r="1.81173" transform="rotate(0.891282 406.249 253.652)" fill="white"/>
<circle cx="382.527" cy="225.5" r="0.603909" transform="rotate(0.891282 382.527 225.5)" fill="white"/>
<circle cx="403.339" cy="207.704" r="1.81173" transform="rotate(0.891282 403.339 207.704)" fill="white"/>
<circle cx="348.25" cy="215.907" r="2.41564" transform="rotate(0.891282 348.25 215.907)" fill="white"/>
</svg>
