<svg width="293" height="292" viewBox="0 0 293 292" fill="none" xmlns="http://www.w3.org/2000/svg">
<mask id="mask0_152_2" style="mask-type:alpha" maskUnits="userSpaceOnUse" x="0" y="0" width="293" height="292">
<rect x="-3.05176e-05" y="292" width="292" height="293" transform="rotate(-90 -3.05176e-05 292)" fill="#0E182F"/>
</mask>
<g mask="url(#mask0_152_2)">
<ellipse rx="1.79041" ry="1.78056" transform="matrix(0.708314 0.705897 -0.708314 0.705897 -2.41584 12.0578)" fill="white"/>
<ellipse rx="1.79041" ry="1.78056" transform="matrix(0.708314 0.705897 -0.708314 0.705897 -2.41584 12.0578)" fill="white"/>
<ellipse rx="0.593826" ry="0.59687" transform="matrix(0.831434 -0.556785 0.560415 0.827439 65.2997 74.8456)" fill="white"/>
<ellipse rx="0.593826" ry="0.59687" transform="matrix(0.831434 -0.556785 0.560415 0.827439 65.2997 74.8456)" fill="white"/>
<ellipse rx="0.593826" ry="0.59687" transform="matrix(0.831434 -0.556785 0.560415 0.827439 124.661 141.306)" fill="white"/>
<ellipse rx="0.593826" ry="0.59687" transform="matrix(0.831434 -0.556785 0.560415 0.827439 124.661 141.306)" fill="white"/>
<ellipse rx="1.78092" ry="1.79005" transform="matrix(0.831434 -0.556785 0.560415 0.827439 119.18 71.7755)" fill="white"/>
<ellipse rx="1.78092" ry="1.79005" transform="matrix(0.831434 -0.556785 0.560415 0.827439 119.18 71.7755)" fill="white"/>
<ellipse rx="1.78092" ry="1.79005" transform="matrix(0.831434 -0.556785 0.560415 0.827439 104.824 186.166)" fill="white"/>
<ellipse rx="1.78092" ry="1.79005" transform="matrix(0.831434 -0.556785 0.560415 0.827439 104.824 186.166)" fill="white"/>
<ellipse rx="1.78092" ry="1.79005" transform="matrix(0.831434 -0.556785 0.560415 0.827439 81.1921 121.615)" fill="white"/>
<ellipse rx="1.78092" ry="1.79005" transform="matrix(0.831434 -0.556785 0.560415 0.827439 81.1921 121.615)" fill="white"/>
<ellipse rx="0.59442" ry="0.596278" transform="matrix(0.957473 -0.293382 0.298741 0.952861 189.35 180.836)" fill="white"/>
<ellipse rx="0.59442" ry="0.596278" transform="matrix(0.957473 -0.293382 0.298741 0.952861 189.35 180.836)" fill="white"/>
<ellipse rx="0.59442" ry="0.596278" transform="matrix(0.957473 -0.293382 0.298741 0.952861 227.085 261.412)" fill="white"/>
<ellipse rx="0.59442" ry="0.596278" transform="matrix(0.957473 -0.293382 0.298741 0.952861 227.085 261.412)" fill="white"/>
<ellipse rx="1.78271" ry="1.78828" transform="matrix(0.957473 -0.293382 0.298741 0.952861 241.92 193.366)" fill="white"/>
<ellipse rx="1.78271" ry="1.78828" transform="matrix(0.957473 -0.293382 0.298741 0.952861 241.92 193.366)" fill="white"/>
<ellipse rx="1.78271" ry="1.78828" transform="matrix(0.957473 -0.293382 0.298741 0.952861 219.362 169.15)" fill="white"/>
<ellipse rx="1.78271" ry="1.78828" transform="matrix(0.957473 -0.293382 0.298741 0.952861 219.362 169.15)" fill="white"/>
<ellipse rx="1.04966" ry="1.05473" transform="matrix(0.506963 -0.861 0.862588 0.507537 7.9344 156.591)" fill="white"/>
<ellipse rx="1.04966" ry="1.05473" transform="matrix(0.506963 -0.861 0.862588 0.507537 7.9344 156.591)" fill="white"/>
<ellipse rx="1.04966" ry="1.05473" transform="matrix(0.506963 -0.861 0.862588 0.507537 153.182 217.724)" fill="white"/>
<ellipse rx="1.04966" ry="1.05473" transform="matrix(0.506963 -0.861 0.862588 0.507537 153.182 217.724)" fill="white"/>
<ellipse rx="3.14799" ry="3.16322" transform="matrix(0.506963 -0.861 0.862588 0.507537 68.9919 219.28)" fill="white"/>
<ellipse rx="3.14799" ry="3.16322" transform="matrix(0.506963 -0.861 0.862588 0.507537 68.9919 219.28)" fill="white"/>
<ellipse rx="1.78064" ry="1.79033" transform="matrix(-0.640006 0.767961 -0.769946 -0.638595 224.462 174.016)" fill="white"/>
<ellipse rx="1.78064" ry="1.79033" transform="matrix(-0.640006 0.767961 -0.769946 -0.638595 224.462 174.016)" fill="white"/>
<ellipse rx="0.593732" ry="0.596962" transform="matrix(-0.640006 0.767961 -0.769946 -0.638595 260.793 173.314)" fill="white"/>
<ellipse rx="0.593732" ry="0.596962" transform="matrix(-0.640006 0.767961 -0.769946 -0.638595 260.793 173.314)" fill="white"/>
<ellipse rx="1.78064" ry="1.79033" transform="matrix(-0.640006 0.767961 -0.769946 -0.638595 261.662 200.244)" fill="white"/>
<ellipse rx="1.78064" ry="1.79033" transform="matrix(-0.640006 0.767961 -0.769946 -0.638595 261.662 200.244)" fill="white"/>
<ellipse rx="2.37419" ry="2.38711" transform="matrix(-0.640006 0.767961 -0.769946 -0.638595 289.338 153.048)" fill="white"/>
<ellipse rx="2.37419" ry="2.38711" transform="matrix(-0.640006 0.767961 -0.769946 -0.638595 289.338 153.048)" fill="white"/>
<ellipse rx="1.04966" ry="1.05473" transform="matrix(0.506963 -0.861 0.862588 0.507537 237.182 8.44089)" fill="white"/>
<ellipse rx="1.04966" ry="1.05473" transform="matrix(0.506963 -0.861 0.862588 0.507537 237.182 8.44089)" fill="white"/>
<ellipse rx="3.14799" ry="3.16322" transform="matrix(0.506963 -0.861 0.862588 0.507537 239.963 95.231)" fill="white"/>
<ellipse rx="3.14799" ry="3.16322" transform="matrix(0.506963 -0.861 0.862588 0.507537 239.963 95.231)" fill="white"/>
<ellipse rx="3.14799" ry="3.16322" transform="matrix(0.506963 -0.861 0.862588 0.507537 152.992 9.99635)" fill="white"/>
<ellipse rx="3.14799" ry="3.16322" transform="matrix(0.506963 -0.861 0.862588 0.507537 152.992 9.99635)" fill="white"/>
<ellipse cx="147" cy="146.499" rx="101.772" ry="101.424" fill="url(#paint0_linear_152_2)" fill-opacity="0.5"/>
<ellipse cx="147" cy="146.499" rx="119.626" ry="119.218" fill="url(#paint1_linear_152_2)" fill-opacity="0.4"/>
<ellipse cx="147" cy="146.498" rx="129" ry="128.56" fill="url(#paint2_linear_152_2)" fill-opacity="0.1"/>
<ellipse cx="146.777" cy="146.276" rx="79.6765" ry="79.4045" fill="url(#paint3_linear_152_2)"/>
</g>
<defs>
<linearGradient id="paint0_linear_152_2" x1="248.772" y1="-11.462" x2="69.4363" y2="248.497" gradientUnits="userSpaceOnUse">
<stop stop-color="#FEC659" stop-opacity="0.5"/>
<stop offset="1" stop-color="#C892FF" stop-opacity="0.5"/>
</linearGradient>
<linearGradient id="paint1_linear_152_2" x1="266.626" y1="-39.1743" x2="55.8286" y2="266.391" gradientUnits="userSpaceOnUse">
<stop stop-color="#FEC659" stop-opacity="0.5"/>
<stop offset="1" stop-color="#C892FF" stop-opacity="0.5"/>
</linearGradient>
<linearGradient id="paint2_linear_152_2" x1="276" y1="-53.7234" x2="48.6846" y2="275.786" gradientUnits="userSpaceOnUse">
<stop stop-color="#FEC659" stop-opacity="0.5"/>
<stop offset="1" stop-color="#C892FF" stop-opacity="0.5"/>
</linearGradient>
<linearGradient id="paint3_linear_152_2" x1="226.453" y1="22.6097" x2="86.0526" y2="226.13" gradientUnits="userSpaceOnUse">
<stop stop-color="#FEC659"/>
<stop offset="1" stop-color="#C892FF"/>
</linearGradient>
</defs>
</svg>
