<?xml version="1.0" encoding="iso-8859-1"?>
<!-- Generator: Adobe Illustrator 19.0.0, SVG Export Plug-In . SVG Version: 6.00 Build 0)  -->
<svg version="1.1" id="Layer_1" xmlns="http://www.w3.org/2000/svg" xmlns:xlink="http://www.w3.org/1999/xlink" x="0px" y="0px"
	 viewBox="0 0 512 512" style="enable-background:new 0 0 512 512;" xml:space="preserve">
<path style="fill:#EFF2FA;" d="M282.483,0H17.655C12.78,0,8.828,3.953,8.828,8.828v459.034c0,4.875,3.953,8.828,8.828,8.828h335.448
	c4.875,0,8.828-3.953,8.828-8.828V79.448L282.483,0z"/>
<path style="fill:#FFFFFF;" d="M326.621,450.207H44.138c-4.875,0-8.828-3.953-8.828-8.828V35.31c0-4.875,3.953-8.828,8.828-8.828
	h238.345c29.252,0,52.966,23.713,52.966,52.966v361.931C335.448,446.254,331.496,450.207,326.621,450.207z"/>
<path style="fill:#FF6464;" d="M326.621,379.586H44.138c-4.875,0-8.828,3.953-8.828,8.828v52.966c0,4.875,3.953,8.828,8.828,8.828
	h282.483c4.875,0,8.828-3.953,8.828-8.828v-52.966C335.448,383.539,331.496,379.586,326.621,379.586z"/>
<path style="fill:#D7DEED;" d="M361.931,79.448H291.31c-4.875,0-8.828-3.953-8.828-8.828V0L361.931,79.448z"/>
<path style="fill:#D2555A;" d="M300.138,423.724H70.621c-4.875,0-8.828-3.953-8.828-8.828l0,0c0-4.875,3.953-8.828,8.828-8.828
	h229.517c4.875,0,8.828,3.953,8.828,8.828l0,0C308.966,419.772,305.013,423.724,300.138,423.724z"/>
<circle style="fill:#FFFFFF;" cx="105.931" cy="414.897" r="17.655"/>
<rect x="391.802" y="410.515" transform="matrix(-0.7071 -0.7071 0.7071 -0.7071 404.2965 1006.1483)" style="fill:#464655;" width="37.452" height="17.653"/>
<path style="fill:#707384;" d="M475.622,509.415l-62.504-62.51c-3.447-3.447-3.447-9.036,0-12.483l12.481-12.481
	c3.447-3.447,9.037-3.447,12.484,0l62.504,62.51c3.447,3.447,3.447,9.036,0,12.483l-12.481,12.481
	C484.658,512.862,479.069,512.862,475.622,509.415z"/>
<path style="fill:#5B5D6E;" d="M339.906,441.416c-51.107,0-92.69-41.582-92.69-92.69s41.582-92.69,92.69-92.69
	s92.69,41.582,92.69,92.69S391.013,441.416,339.906,441.416z M339.906,273.692c-41.375,0-75.034,33.66-75.034,75.035
	s33.66,75.034,75.034,75.034s75.034-33.66,75.034-75.034S381.281,273.692,339.906,273.692z"/>
<path style="fill:#FF6464;" d="M339.906,273.657c-41.44,0-75.034,33.593-75.034,75.034c0,41.44,33.594,75.034,75.034,75.034
	s75.034-33.594,75.034-75.034C414.941,307.251,381.346,273.657,339.906,273.657z M339.906,406.071
	c-31.69,0-57.379-25.689-57.379-57.379s25.689-57.379,57.379-57.379s57.379,25.689,57.379,57.379S371.596,406.071,339.906,406.071z"
	/>
<path style="fill:#5B5D6E;" d="M484.47,500.565l-62.504-62.51c-3.447-3.448-3.447-9.036,0-12.483l-8.849,8.849
	c-3.448,3.447-3.448,9.036,0,12.483l62.504,62.51c3.447,3.448,9.036,3.448,12.484,0l8.847-8.849
	C493.506,504.012,487.916,504.012,484.47,500.565z"/>
<circle style="fill:#FFA5A5;" cx="339.906" cy="348.69" r="57.379"/>
<circle style="fill:#FFC8C3;" cx="370.803" cy="317.793" r="22.069"/>
<path style="fill:#FF6464;" d="M248.205,215.692l-95.383,47.691c-9.376,4.689-20.408-2.13-20.408-12.612v-95.383
	c0-10.483,11.032-17.301,20.408-12.612l95.383,47.691C258.599,195.662,258.599,210.495,248.205,215.692z"/>
<g>
</g>
<g>
</g>
<g>
</g>
<g>
</g>
<g>
</g>
<g>
</g>
<g>
</g>
<g>
</g>
<g>
</g>
<g>
</g>
<g>
</g>
<g>
</g>
<g>
</g>
<g>
</g>
<g>
</g>
</svg>
