<svg width="62" height="62" viewBox="0 0 62 62" fill="none" xmlns="http://www.w3.org/2000/svg">
<path d="M23.0645 47.5269C23.0645 47.5269 20.7555 48.8706 24.7099 49.324C29.5013 49.8713 31.9499 49.7928 37.2286 48.795C37.2286 48.795 38.6192 49.6645 40.5577 50.4182C28.72 55.4896 13.7679 50.1242 23.0645 47.5269ZM21.6172 40.908C21.6172 40.908 19.0267 42.8256 22.9846 43.2354C28.1029 43.7638 32.1441 43.8069 39.1404 42.4604C39.1404 42.4604 40.1058 43.4412 41.6262 43.977C27.3168 48.162 11.3789 44.3063 21.6172 40.908Z" fill="#EE9696"/>
<path d="M33.8104 29.6782C36.7287 33.0374 33.045 36.0574 33.045 36.0574C33.045 36.0574 40.4506 32.2352 37.0503 27.4467C33.8733 22.9832 31.4379 20.7662 44.6235 13.1189C44.6235 13.1194 23.9257 18.2872 33.8104 29.6782Z" fill="#EE9696"/>
<path d="M49.4658 52.4234C49.4658 52.4234 51.1752 53.8329 47.5826 54.9223C40.7519 56.9915 19.1469 57.6154 13.1464 55.0051C10.9905 54.0664 15.035 52.7649 16.3075 52.4902C17.6342 52.203 18.3917 52.2553 18.3917 52.2553C15.9926 50.5663 2.88542 55.5733 11.735 57.0094C35.867 60.9213 55.7244 55.2478 49.4658 52.4234ZM24.1761 34.0486C24.1761 34.0486 13.1876 36.6589 20.2851 37.6078C23.2825 38.0089 29.2548 37.9168 34.8217 37.4499C39.37 37.0677 43.9343 36.2516 43.9343 36.2516C43.9343 36.2516 42.332 36.9389 41.1714 37.7304C30.0104 40.6661 8.45476 39.2988 14.6611 36.2976C19.9078 33.7599 24.1761 34.0486 24.1761 34.0486ZM43.8887 45.0667C55.2333 39.1733 49.9875 33.5095 46.3261 34.2724C45.431 34.4589 45.0294 34.6211 45.0294 34.6211C45.0294 34.6211 45.3627 34.0985 45.9982 33.8738C53.241 31.3284 58.8104 41.383 43.662 45.3656C43.662 45.3646 43.8359 45.2072 43.8887 45.0667Z" fill="#EE9696"/>
<path d="M37.0503 0.768799C37.0503 0.768799 43.3317 7.05405 31.0911 16.7159C21.2747 24.4688 28.8528 28.8882 31.0877 33.9398C25.357 28.77 21.1536 24.2184 23.9732 19.9825C28.1136 13.766 39.5841 10.7508 37.0503 0.768799Z" fill="#EE9696"/>
<path d="M25.2911 61.0415C36.178 61.7376 52.9005 60.654 53.2962 55.5022C53.2962 55.5022 52.5353 57.4552 44.298 59.0047C35.0048 60.7543 23.5406 60.5504 16.7434 59.4281C16.7434 59.4285 18.136 60.5814 25.2911 61.0415Z" fill="#EE9696"/>
</svg>
