<svg width="51" height="51" viewBox="0 0 51 51" fill="none" xmlns="http://www.w3.org/2000/svg">
<path fill-rule="evenodd" clip-rule="evenodd" d="M25.1625 0.269919C25.071 0.3232 24.6869 0.874419 24.3086 1.4949C23.3592 3.05314 23.3485 3.05411 22.0732 1.7119C21.2434 0.839059 21.0429 0.679216 20.7755 0.681153C20.6016 0.682122 20.3822 0.741216 20.2873 0.812419C20.1928 0.883622 19.925 1.45034 19.6925 2.07179C19.1601 3.49537 19.1345 3.54139 18.8395 3.59806C18.6578 3.63245 18.3081 3.43773 17.4697 2.83565C16.8506 2.39051 16.2432 2.02675 16.1202 2.02675C15.6097 2.02675 15.4658 2.30575 15.2227 3.76711C14.9136 5.62517 14.9243 5.61887 13.2493 4.85792C12.5731 4.55131 11.9318 4.29992 11.8238 4.29992C11.7158 4.29992 11.5109 4.41617 11.369 4.55809C11.1113 4.81626 11.1108 4.81723 11.181 6.2379L11.2517 7.66003L10.9829 7.80389C10.7446 7.93128 10.5804 7.91578 9.52544 7.66633C8.14836 7.34131 7.85773 7.35003 7.57873 7.72542L7.37481 7.99958L7.64848 9.17225C7.79864 9.81695 7.94347 10.4379 7.97059 10.5517C7.99723 10.6651 7.95122 10.8467 7.8679 10.9547C7.73034 11.1325 7.58406 11.1485 6.30967 11.1291C4.15275 11.0952 4.0302 11.2802 4.92145 13.2255C5.20481 13.8431 5.43683 14.404 5.43683 14.4713C5.43683 14.8268 5.15347 14.9562 3.93623 15.1548C3.2552 15.2657 2.66329 15.3567 2.62067 15.3567C2.57804 15.3567 2.45017 15.4497 2.33683 15.5631C1.96628 15.9336 2.07139 16.2814 2.91178 17.4677C3.95851 18.945 3.95657 18.9503 2.22736 19.612C0.260793 20.3642 0.221075 20.5497 1.71828 21.9699C3.11279 23.2923 3.11425 23.2729 1.53567 24.2654C0.339747 25.0166 0.32134 25.0346 0.290825 25.4419C0.254012 25.9374 0.262731 25.9462 1.69067 26.8185C3.10262 27.6807 3.10262 27.7069 1.71682 29.0181C0.226403 30.4276 0.272418 30.6335 2.24043 31.376C3.95997 32.0246 3.96239 32.0323 2.91372 33.5097C2.31939 34.3472 2.13 34.6959 2.13 34.9546C2.13 35.4385 2.38187 35.562 3.88683 35.8148C5.15443 36.0284 5.43683 36.1539 5.43683 36.5036C5.43683 36.5753 5.20432 37.141 4.92 37.7601C4.03553 39.6864 4.13628 39.8468 6.22975 39.8468C8.17936 39.8468 8.12753 39.7872 7.70758 41.5455C7.39079 42.8707 7.38595 43.1245 7.6727 43.4108C7.89212 43.6307 8.30578 43.606 9.59955 43.2965C10.5877 43.0606 10.7611 43.0441 10.9902 43.1667L11.2517 43.3066L11.181 44.7283C11.1108 46.1494 11.1113 46.1504 11.369 46.4086C11.5109 46.5505 11.7187 46.6668 11.8301 46.6668C11.9415 46.6668 12.5828 46.4168 13.2556 46.1112C14.9252 45.3531 14.9146 45.3468 15.2227 47.1991C15.4668 48.6672 15.6092 48.9399 16.1304 48.9399C16.2597 48.9399 16.854 48.5912 17.4517 48.1649C18.5014 47.4161 18.7736 47.2989 19.0531 47.4766C19.1253 47.5222 19.4052 48.1373 19.675 48.8435C20.0717 49.882 20.217 50.1523 20.4379 50.2579C20.8584 50.4594 21.1185 50.2976 22.1066 49.2213C23.2996 47.9218 23.3485 47.9281 24.3226 49.5066C25.3984 51.2494 25.6769 51.2456 26.7798 49.4713C27.7302 47.9426 27.719 47.9436 29.0036 49.2853C29.8566 50.1756 30.0382 50.3175 30.326 50.3175C30.5095 50.3175 30.729 50.2487 30.8127 50.1644C30.897 50.0801 31.176 49.4577 31.4328 48.7815C31.6895 48.1049 31.9554 47.5159 32.0242 47.4723C32.2959 47.2993 32.5773 47.4209 33.6255 48.1649C34.2426 48.6033 34.8234 48.9399 34.9614 48.9399C35.4739 48.9399 35.6589 48.5762 35.872 47.1463C36.0542 45.9271 36.091 45.8104 36.3308 45.6888C36.5666 45.5692 36.7081 45.6094 37.8144 46.1117C38.4872 46.4168 39.1285 46.6668 39.2399 46.6668C39.3513 46.6668 39.5625 46.5471 39.7083 46.4008L39.9742 46.1354L39.9011 44.7719C39.8313 43.4699 39.8376 43.4001 40.0454 43.2122C40.259 43.0189 40.2808 43.0199 41.4753 43.2926C42.9216 43.6229 43.1914 43.6317 43.4632 43.3599C43.7286 43.0945 43.7257 43.0364 43.3624 41.5043C42.9551 39.7857 42.9003 39.8468 44.8582 39.8468C46.1926 39.8468 46.3413 39.8279 46.5113 39.6404C46.7952 39.3265 46.7279 38.9671 46.1568 37.7499C45.8686 37.1367 45.6346 36.5787 45.6366 36.5099C45.6463 36.1481 45.9306 36.0245 47.2447 35.8109C48.0488 35.6806 48.6503 35.5295 48.7593 35.4312C49.1245 35.1013 48.9904 34.6722 48.1568 33.5034C47.112 32.0386 47.1163 32.0246 48.7894 31.408C50.7927 30.6698 50.8499 30.4237 49.3508 28.9992C47.9621 27.6797 47.9616 27.687 49.4825 26.7531C51.3212 25.6245 51.3241 25.3702 49.515 24.2475C47.9591 23.2821 47.9601 23.2957 49.3546 21.9714C50.8504 20.5502 50.8097 20.3642 48.8426 19.612C47.1066 18.9479 47.1013 18.9314 48.1563 17.4836C48.7845 16.6215 48.94 16.3352 48.94 16.0397C48.94 15.5234 48.7085 15.4076 47.1856 15.1615C45.9131 14.9562 45.6332 14.8312 45.6332 14.4694C45.6332 14.4006 45.8657 13.847 46.15 13.2381C46.7065 12.046 46.7845 11.5689 46.4697 11.2836C46.3006 11.1306 46.074 11.1088 44.8611 11.1286C43.592 11.15 43.4298 11.132 43.2539 10.9552C43.0616 10.762 43.0636 10.7348 43.3639 9.48176C43.732 7.9463 43.7335 7.909 43.4307 7.62467C43.1236 7.33598 42.9318 7.34083 41.5218 7.67262C40.4944 7.91481 40.3244 7.93079 40.091 7.80583L39.826 7.6639L39.8991 6.24662L39.9728 4.82983L39.7078 4.56487C39.562 4.41908 39.3552 4.29992 39.2477 4.29992C39.1406 4.29992 38.5027 4.55325 37.8304 4.86228C36.7076 5.37911 36.587 5.4135 36.3443 5.28659C36.1021 5.15968 36.0619 5.03472 35.8551 3.77195C35.6163 2.31108 35.4686 2.02675 34.9498 2.02675C34.8268 2.02675 34.2169 2.39245 33.5945 2.83953C32.5725 3.57384 32.4354 3.64311 32.1806 3.55447C31.9699 3.48084 31.8474 3.32051 31.6977 2.92187C31.5868 2.62834 31.3746 2.06259 31.2254 1.66492C30.9242 0.862794 30.7561 0.683091 30.3046 0.683091C30.0528 0.683091 29.8246 0.864247 29.007 1.71336C27.722 3.04829 27.7171 3.04781 26.7721 1.49781C26.3943 0.878294 25.9995 0.325138 25.8944 0.26895C25.658 0.142044 25.38 0.142528 25.1625 0.269919ZM26.3337 4.93687C27.4531 5.73367 26.8578 7.60675 25.4851 7.60675C24.1531 7.60675 23.4822 6.00201 24.4335 5.0909C24.9702 4.5765 25.7399 4.51401 26.3337 4.93687ZM24.9261 9.88428C25.66 10.1633 25.9612 9.99569 27.6367 8.38078L28.8956 7.16693L29.4284 7.23765C31.0995 7.4595 34.4233 8.9194 36.3332 10.2703C38.0881 11.5123 40.4203 14.0417 41.4143 15.7811L41.6269 16.1535L40.6853 18.2751C40.167 19.442 39.7432 20.5192 39.7432 20.6699C39.7432 21.0172 39.9708 21.5664 40.1903 21.7481C40.2828 21.8251 41.1619 22.2484 42.1437 22.6887L43.9282 23.4899L43.9984 23.9438C44.089 24.5352 44.1011 25.9878 44.0187 26.4005L43.9543 26.7231H42.9357C41.7543 26.7231 41.8454 26.6175 41.7814 28.0667C41.7349 29.1174 41.4811 29.6981 40.9037 30.074C39.9631 30.6877 38.4097 30.5763 37.7509 29.8483C37.6497 29.7364 37.453 29.174 37.3135 28.5981C36.9062 26.9159 36.3588 25.9713 35.2593 25.0525C34.912 24.7623 34.6282 24.4916 34.6282 24.4504C34.6282 24.4097 35.0099 24.0881 35.4768 23.7369C37.177 22.4553 38.1544 20.9634 38.262 19.4856C38.4668 16.667 36.2213 14.0397 32.881 13.1882C32.0891 12.9862 31.751 12.9799 21.9535 12.9799C16.3929 12.9799 11.8432 12.9436 11.8432 12.8995C11.8432 12.7954 13.0788 11.5961 13.8068 10.9945C15.8058 9.34178 18.4026 8.04123 21.0918 7.34664L22.0218 7.1059L23.3432 8.44569C24.0702 9.18242 24.7828 9.82955 24.9261 9.88428ZM8.28737 18.5047C8.89623 18.9033 9.14569 19.905 8.78628 20.5071C8.23022 21.439 6.82165 21.4783 6.26511 20.5773C5.45572 19.2686 7.01443 17.6706 8.28737 18.5047ZM44.1553 18.5556C45.748 19.5267 44.5138 21.9157 42.8088 21.1615C41.6705 20.6577 41.6342 19.1019 42.7473 18.5342C43.2118 18.2974 43.7456 18.3056 44.1553 18.5556ZM12.98 24.5017V30.4431H7.72743L7.51915 29.5392C7.10937 27.7592 6.93693 25.9176 7.04011 24.4092L7.11228 23.3494L8.91803 22.5395C10.051 22.0319 10.7795 21.6449 10.8735 21.501C11.2842 20.8748 11.245 20.4272 10.6686 19.1542L10.3992 18.5599H12.98V24.5017ZM28.1022 18.8186C29.2269 19.1111 29.8212 19.7064 29.8227 20.541C29.8237 21.1537 29.52 21.5383 28.7667 21.8784C28.2335 22.1196 28.1487 22.1254 24.7857 22.1583L21.35 22.1913V18.6631H24.4282C26.8326 18.6631 27.6372 18.697 28.1022 18.8186ZM26.9416 27.3445C27.4991 27.4995 28.1584 27.9839 28.4965 28.4872C28.8515 29.0161 29.0593 29.7039 29.5514 31.9824C29.967 33.9083 30.2344 34.538 30.9833 35.3576C31.9108 36.3723 31.6958 36.3331 36.3293 36.3331C38.5482 36.3331 40.3632 36.3685 40.3632 36.4121C40.3632 36.49 38.835 38.2968 38.7691 38.2968C38.7502 38.2968 37.952 38.1296 36.9953 37.9252C34.294 37.3483 34.1966 37.4162 33.5766 40.3113L33.178 42.1713L32.8181 42.3485C32.2174 42.645 30.2654 43.2553 29.2535 43.4636C27.5815 43.8075 25.7617 43.9237 24.1623 43.7886C21.4357 43.5575 17.8252 42.4997 17.6842 41.8898C17.6542 41.7605 17.4726 40.9235 17.2812 40.0294C17.0894 39.1352 16.8565 38.2871 16.7635 38.1447C16.3164 37.4627 15.846 37.4205 13.7778 37.8783C12.9945 38.0517 12.3111 38.1931 12.2588 38.1931C12.1604 38.1931 10.7068 36.5123 10.7068 36.399C10.7068 36.3636 14.1595 36.3224 18.3793 36.3079L26.0518 36.2817L26.0794 33.5562C26.0988 31.6318 26.0722 30.7885 25.9889 30.6887C25.8959 30.5763 25.4008 30.5468 23.6106 30.5468H21.35V27.2399L23.9593 27.2404C25.394 27.2409 26.7362 27.2879 26.9416 27.3445ZM15.119 39.7392C16.3391 40.4827 15.754 42.4309 14.3111 42.4294C12.8313 42.4285 12.283 40.4982 13.5438 39.729C13.9609 39.4748 14.6937 39.4796 15.119 39.7392ZM37.4613 39.8206C38.0595 40.259 38.2586 41.171 37.888 41.7784C36.9149 43.3745 34.4814 42.1059 35.2942 40.4265C35.6938 39.6017 36.756 39.3043 37.4613 39.8206Z" fill="#EE96B0"/>
</svg>
